@startuml
'https://plantuml.com/class-diagram


left to right direction


skinparam classAttributeIconSize 0
skinparam classFontSize 12
skinparam lineThickness 2
skinparam defaultFontName Arial
skinparam nodeMargin 30
skinparam componentStyle rectangle
skinparam linetype ortho



package "Model" {


    interface IAccountManager {
        +login(email: String, password: String): boolean
        +createAccount(name: String, email: String, nationalId: String, password: String): boolean
        +updateProfile(name: String, email: String, nationalId: String, password: String): boolean
        +deleteAccount() : boolean
    }

    class User implements IAccountManager {
        -id: int
        -name: String
        -email: String
        -nationalId: String
        -password: String
        -address: Address
        -isVolunteer: boolean = false
        -isDeleted: boolean = false
        -volunteer: VolunteerRole
        +addVolunteerRole(volunteer: VolunteerRole)
        +removeVolunteerRole()
    }

    interface VolunteerRole {
        +performDuties()
        +getResponsibilities()
    }

    class BasicVolunteerRole implements VolunteerRole {
        -volunteerID: int
        -eventID: int
        -hours: int
        -skills: List<String>
        +signUpForEvent(Event :event)
        +performDuties()
        +getResponsibilities()
    }

    class DonationAdmin implements IAccountManager {
        -hospitalID: int
        -hospitalName: String
        -donationadminID: int
        -address: Address
        +uploadRequiredItems(items: List<CompositeItem>)
        +manageItems(item: CompositeItem, action: String)
        +searchDonations(criteria: Map<String, String>): List<Donation>
        +filterDonations(filters: Map<String, String>): List<Donation>
    }

    class EventAdmin implements IAccountManager {
            -eventID: int
            -eventName: String
            -eventadminID: int
            -address: Address
            +addEvents(event: List<Events>)
            +manageEvents(event: Event, action: String)
            +searchEvents(criteria: Map<String, String>): List<Events>
            +filterEvents(filters: Map<String, String>): List<Events>
        }

    class Address {
        -address_id: int
        -name: String
        -parent_id: int
    }

    class DonationService {
        +trackDonationHistory(userId: int): List<Donation>
        +trackDonationStatus(donationId: int): String
        +fillDonationForm(donationDetails: Donation): boolean
        +choosePickUpOrDropOff(donationId: int, location: Address): boolean
    }

    class Donation {
        -donationid: int
        -donation_type: type
        -description: String
        -amount: int
        -state: DonationState
        -userId: int
        +setState(state: DonationState)
        +process()
    }

    class MonetaryDonation extends Donation{
     -amount: double
    }


    class DonationDetails {
        -donationDetailsID: int
        -type: string
        -itemID: int
        -quantity: int
        -unitPrice: float
        +getDetails()
    }

    class Event{
        -eventID: int
        -name: String
        -date: date
        -location: String
        -description: String
        -volunteerList: List<VolunteerRole>
    }

    class EventDetails {
        -eventDetailsID: int
        -volunteerID: int
        -attendance: String
        -totalHours: int
    }

    class Notification{
        -notificationID: int
        - type : String
        -message: String
        -date: date
        -recipient: String
    }

    class Payment {
        -paymentID: int
        -type: Type
        -amount: int
    }

    class PaymentDetails {
        -paymentDetailsID: int
        -paymentID: int
        -donationID: int
        -amount: int
        -paymentDate: date
    }

    interface ItemComponent {
               + addChild(ItemComponent itemComponent)
               + removeChild(ItemComponent itemComponent)
               + getChild(int i): ItemComponent
               + createIterator(): Iterator<ItemComponent>
               + getDetails()
           }

           class CompositeItem {
               - Iterator<ItemComponent> iterator
               - ArrayList<ItemComponent> itemComponents
               - String name
               - String description
               + CompositeItem(String name, String description)
               + addChild(ItemComponent itemComponent)
               + removeChild(ItemComponent itemComponent)
               + getChild(int i): ItemComponent
               + createIterator(): Iterator<ItemComponent>
               + getDetails()
           }

           class CompositeIterator {
               - Stack<Iterator<ItemComponent>> stack
               + CompositeIterator(Iterator<ItemComponent> iterator)
               + hasNext(): boolean
               + next(): ItemComponent
           }

           abstract class Item {
               - String name
               - String description
               - ItemType type
               -amount: int
               + Item()
               + Item(String name, String description, ItemType type)
               + getDetails()
           }

           class Equipment {
               - int itemId
               - Condition condition
               + Equipment()
               + Equipment(String name, String description, Condition condition)
               + getDetails()
           }

           class Medicine {
               - int itemId
               - String manufacturer
               - Date expiryDate
               + Medicine()
               + Medicine(String name, String description, String manufacturer, Date expiryDate)
               + getDetails()
           }

           enum ItemType {
               EQUIPMENT, MEDICINE
           }

           enum DonationType{
           ITEM, MONETARY
           }

           enum Condition {
               NEW, USED, REFURBISHED
           }
}

package "View" {

abstract class BaseView {
        +render()
        +update()
    }

    class DonationView extends BaseView{
        +showDonationForm()
        +chooseLocation()
        +displayItemDescription()
    }

    class DonorDashboardView extends BaseView {
        +displayDonationHistory()
        +showDonationForm()
        +displayNotifications()
    }

    class MoneyDonationView extends BaseView {
        +showMoneyDonationForm()
        +displayConfirmation()
        +chooseLocation()
    }

    class DonationAdminDashboardView extends BaseView {
        +displayInventory()
        +showDonationRequests()
        +displayNotifications()
    }

    class EventAdminDashboardView extends BaseView {
            +displayEvents()
            +displayNotifications()
        }

    class LoginView extends BaseView {
        +showLoginForm()
        +displayError()

    }

    class DonationHistoryView extends BaseView {
        +displayDonationHistory()
        +displayDonationDetails()
    }

    class RegistrationView extends BaseView {
        +showRegistrationForm()
        +displayError()
    }

    class NotificationView extends BaseView {
        +displayNotification()
    }

    class EventView extends BaseView {
        +showEventDetails()

    }

    class UserProfileView extends BaseView {
        +showProfileDetails()
        +showUpdateForm()
    }

    class VolunteerRegistrationView extends BaseView {
        +showVolunteerForm()
        +displayConfirmation()
    }

    class SearchResultsView extends BaseView {
        +displayResults()
    }

    class FilterResultsView extends BaseView {
        +displayFilteredResults()
    }


}

package "Controller" {
    class AdminController {
        + executeDashboardOperations(): void
    }

    class DonationController {
        + manageDonation(donationId: int): void
    }

    class EventController {
        + handleEvent(eventId: int): void
    }

    class UserController {
        + getAllUsers()
        + showAddUserForm()
        + createUser(User user, int cityID): String
        + showEditForm(int id): String
        + updateUser(int id, User user): String
        + deleteUser(int id): String
        +getCitiesByCountry(int countryID): List<Address>
    }

    class NotificationController {
        + sendNotification(Map<String, Object> notificationDetails)
        + getUserNotifications(userId: int): List<Notification>
        + getNotification(notificationId: int): Notification
        + deleteNotification(notificationId: int)
    }

    class LoginController {
        + login(User loginUser): String
    }

    class SearchController {
        + searchMedicine(searchQuery: String): void
        + searchEquipment(searchQuery: String): void
    }

    class VolunteerController {
        + addVolunteerRole(int userId, VolunteerRole volunteerRole)
        + updateVolunteerSpecialization(int userId, List<String> specialization)
        + removeVolunteerRole(int userId)
    }

    class ItemController {
        + getAllItems(): Item
        + saveMedical(Medicine medicine): Medicine
        + saveEquipment(Equipment equipment): Equipment
    }

     class FilterController {
            -filterStrategy: FilterStrategy
            +filter(searchQuery)
        }
}

package "Services" {

    abstract class VolunteerRoleDecorator{
        -decoratedVolunteer: VolunteerRole
        +performDuties()
        +getResponsibilities()
    }

    class EventCoordinatorVolunteerRoleDecorator extends VolunteerRoleDecorator {
        +performDuties()
        +getResponsibilities()
    }

    class EmergencyResponderVolunteerRoleDecorator extends VolunteerRoleDecorator {
        +performDuties()
        +getResponsibilities()
    }

    class FundrasierVolunteerRoleDecorator extends VolunteerRoleDecorator {
        +performDuties()
        +getResponsibilities()
    }

    interface DonationState {
        + handle(donation: Donation)
    }

    class PendingState {
        + handle(donation: Donation)
    }
    class ApprovedState {
        + handle(donation: Donation)
    }
    class RejectedState {
        + handle(donation: Donation)
    }

    interface DonationManager {
        + approveDonation(donationId: int)
        + rejectDonation(donationId: int)
    }

    class DonationManagerImpl implements DonationManager {
        + approveDonation(donationId: int)
        + rejectDonation(donationId: int)
    }

    class ProtectiveProxyDonationManager implements DonationManager {
        -realSubject: DonationManagerImpl
        +approveDonation(donationId: int)
        +rejectDonation(donationId: int)
        +checkAccess(userRole: String): boolean
    }


    interface DonationFacade {
        + validateDonation(donationId: int): boolean
        + logDonation(donationId: int): void
        + sendNotification(donationId: int): void
    }

    class DonationValidation implements DonationFacade {
        + validate(donationId: int): boolean
    }

    class DonationLogger implements DonationFacade{
        + logDonation(donationId: int): void
        + logCancellation(donationId: int): void
    }

    class DonationNotification implements DonationFacade{
            + sendNotification(donationId: int): void
        }

    interface AdminDashboardFacade {
        + manageDonations()
        + manageEvents()
        + manageUsers()
        + manageNotifications()
    }

    class DonationManagement implements AdminDashboardFacade {
        + processDonation(donationId: int): void
    }

    class EventManagement implements AdminDashboardFacade {
        + createEvent(eventId: int): void
    }

    class UserManagement implements AdminDashboardFacade {
        + manageUser(userId: int): void
    }

    class NotificationManagement implements AdminDashboardFacade {
        + sendAdminNotification(message: String): void
    }

    interface EventManagementFacade {
        + createEvent(eventId: int): void
        + updateEvent(eventId: int): void
        + notifyUsers(eventId: int): void
    }

    class EventCreationService implements EventManagementFacade {
        + create(eventId: int): void
    }

    class EventNotificationService implements EventManagementFacade {
        + notify(eventId: int): void
    }

    class EventUpdateService implements EventManagementFacade  {
        + update(eventId: int): void
    }

    interface MoneyDonationStrategy {
        +pay(moneydonationDetails)
    }

    class CreditCardMoneyDonation implements MoneyDonationStrategy {
        +pay(moneydonationDetails)
    }

    class DebitCardMoneyDonation implements MoneyDonationStrategy {
        +pay(moneydonationDetails)
    }

    class PaypalMoneyDonation implements MoneyDonationStrategy {
        +pay(moneydonationDetails)
    }

    class CashDonation implements MoneyDonationStrategy {
        +pay(moneydonationDetails)
    }

    interface Subject {
        +subscribe(observer: Observer)
        +unsubscribe(observer: Observer)
        +notifySubscribers(notificationType: String, message: String)
    }

    interface Observer {
        +update(notificationType: String, message: String)
    }

    class EmailNotification implements Observer {
        -status: String
        +update(notificationType: String, message: String)
    }

    class InAppNotification implements Observer {
        -status: String
        +update(notificationType: String, message: String)
    }

    class SMSNotification implements Observer {
        -status: String
        +update(notificationType: String, message: String)
    }

    class NotificationSubject implements Subject {
        -subscribers: List<Observer>
        -state: String
        +subscribe(observer: Observer)
        +unsubscribe(observer: Observer)
        +notifySubscribers(notificationType: String, message: String)
    }

    interface FilterStrategy {
        +filter(searchQuery)
    }

    class FilterByRecentGroup implements FilterStrategy {
        +filter(searchQuery)
    }

    class FilterByItemTypeGroup implements FilterStrategy {
        +filter(searchQuery)
    }

    class FilterByHospitalGroup implements FilterStrategy {
        +filter(searchQuery)
    }

    class FilterByUrgencyGroup implements FilterStrategy {
        +filter(searchQuery)
    }

    interface SearchStrategy {
        +search(searchQuery)
    }

    class SearchByMedicine implements SearchStrategy {
        +search(searchQuery)
    }

    class SearchByHospital implements SearchStrategy {
        +search(searchQuery)
    }

    class SearchByEquipment implements SearchStrategy {
        +search(searchQuery)
    }

    interface LoginStrategy {
        +login(userCredentials)
    }

    class EmailLogin implements LoginStrategy {
        +login(userCredentials)
    }

    class GoogleLogin implements LoginStrategy {
        +login(userCredentials)
    }

    class FacebookLogin implements LoginStrategy {
        +login(userCredentials)
    }

    interface NotificationSender {
        + sendNotification(message: String, recipient: String)
    }

    class EmailNotificationAdapter {
        -emailAPI: EmailAPI
        +sendNotification(message: String, recipient: String)
    }
    class SMSNotificationAdapter {
        -smsAPI: SMSAPI
        +sendNotification(message: String, recipient: String)
    }
    class InAppNotificationAdapter {
        -inAppSystem: InAppNotificationSystem
        +sendNotification(message: String, recipient: String)
    }

    class EmailAPI {
        +sendEmail(to: String, content: String)
    }
    class SMSAPI {
        +sendSMS(phoneNumber: String, text: String)
    }
    class InAppNotificationSystem {
        +pushNotification(userId: String, message: String)
    }


    abstract class EventScheduler {
        -scheduleEvent(): void
        +validateEventDetails(): void
        +assignLocation(): void
        +notifyParticipants(): void
    }

    class PublicEventScheduler {
        +validateEventDetails(): void
        +notifyParticipants(): void
    }

    class PrivateEventScheduler {
        +validateEventDetails(): void
        +notifyParticipants(): void
    }

    class RecurringEventScheduler {
        +validateEventDetails(): void
        +notifyParticipants(): void
    }

interface Command {
       List<?> execute();
   }

   class SearchCommand implements Command {
       - SearchProcessor searchProcessor
       - String searchQuery
       - SearchStrategy searchStrategy
       + execute(): List<?>
   }

    class FilterCommand implements Command {
        - FilterProcessor filterProcessor
        - String filterQuery
        + execute(): List<?>
    }

    class CommandInvoker {
        + List<?> executeCommand(Command command)
    }






}


' Model to Model Relationships
User -->  BasicVolunteerRole : "0..1"
User --> Address : has
User -- Donation : Makes
User *-- Payment : makes
User -- DonationService : Uses
BasicVolunteerRole -- Event : "0..*"
DonationAdmin -- Address : has
EventAdmin -- Address : has
Address "0..*" --> "1" Address : Parent
DonationService ..> Donation : Manages
Donation --> Address
Donation *-- DonationDetails : has
Event *-- EventDetails : has
Payment *-- PaymentDetails : has


' Model to Controller Relationships


' Model to service Relationships
Donation o--> DonationState : uses
VolunteerRoleDecorator o--left-> VolunteerRole



' Controller to Service Relationships
AdminController --> AdminDashboardFacade
EventController --> EventManagementFacade
DonationController --> DonationFacade
NotificationController --> NotificationSubject
NotificationController --> Notification
VolunteerController --> BasicVolunteerRole
VolunteerController --> User


' Controller to View Relationships

' Composite Pattern
ItemComponent <|.. CompositeItem
ItemComponent <|.. Item
Item <|-- Equipment
Item <|-- Medicine
CompositeItem --> "1..*" ItemComponent
CompositeIterator --> "1..*" ItemComponent
ItemType <|-- Item
Condition <|-- Medicine
Condition <|-- Equipment

' Service to Service Relationships
DonationState <|.. PendingState
DonationState <|.. ApprovedState
DonationState <|.. RejectedState
DonationAdmin --> DonationManager
ProtectiveProxyDonationManager o--left-> DonationManagerImpl
DonationController --> DonationFacade
Subject -right->"Observes" Observer : "1..*"
NotificationSubject <-down- "subject" EmailNotification
NotificationSubject <-left- "subject" InAppNotification
NotificationSubject <-left- "subject" SMSNotification
NotificationSender <|... EmailNotificationAdapter
NotificationSender <|... SMSNotificationAdapter
NotificationSender <|... InAppNotificationAdapter
EmailNotificationAdapter --> EmailAPI : uses
SMSNotificationAdapter --> SMSAPI : uses
InAppNotificationAdapter --> InAppNotificationSystem : uses
EventScheduler <|-- PublicEventScheduler
EventScheduler <|-- PrivateEventScheduler
EventScheduler <|-- RecurringEventScheduler
InAppNotification --> NotificationSender : sends
SMSNotification --> NotificationSender : sends
EmailNotification --> NotificationSender : sends
SearchController --> CommandInvoker
FilterController --> CommandInvoker


' Composite Pattern
ItemComponent <|.. CompositeItem
ItemComponent <|.. Item
Item <|-- Equipment
Item <|-- Medicine
CompositeItem --> "1..*" ItemComponent
CompositeIterator --> "1..*" ItemComponent
ItemType <|-- Item
DonationType <|-- Donation
Condition <|-- Medicine
Condition <|-- Equipment


' View

DonorDashboardView --> DonationController
DonationAdminDashboardView --> DonationController
EventAdminDashboardView --> EventController
LoginView --> LoginController
DonationHistoryView --> DonationController
EventView --> EventController
RegistrationView --> UserController
UserProfileView --> UserController
VolunteerRegistrationView --> UserController
SearchResultsView --> SearchController
DonationAdminDashboardView --> UserController
EventView --> EventController
DonationView --> DonationController

}


@enduml
